<?xml version="1.0" encoding="UTF-8" standalone="no"?>
<svg
   xmlns:dc="http://purl.org/dc/elements/1.1/"
   xmlns:cc="http://creativecommons.org/ns#"
   xmlns:rdf="http://www.w3.org/1999/02/22-rdf-syntax-ns#"
   xmlns:svg="http://www.w3.org/2000/svg"
   xmlns="http://www.w3.org/2000/svg"
   version="1.1"
   id="svg3009"
   height="337.18399"
   width="500.96048">
  <defs
     id="defs3011" />
  <metadata
     id="metadata3014">
    <rdf:RDF>
      <cc:Work
         rdf:about="">
        <dc:format>image/svg+xml</dc:format>
        <dc:type
           rdf:resource="http://purl.org/dc/dcmitype/StillImage" />
        <dc:title></dc:title>
      </cc:Work>
    </rdf:RDF>
  </metadata>
  <g
     transform="translate(0.47705875,386.60293)"
     id="layer1">
    <g
       id="g3767">
      <path
         id="path3813"
         d="m 330.0486,-337.61379 3.60785,4.13219 3.60786,4.42307 3.60788,4.70238 3.60783,4.97092 3.60787,5.22566 3.60784,5.46749 3.60787,5.69626 3.60786,5.91137 3.60786,6.1106 3.60786,6.29456 3.60785,6.46317 3.60786,6.61583 3.60787,6.75153 3.60784,6.87069 3.60787,6.97231 3.60786,7.05697 3.60785,7.12348 3.60786,7.17266 3.60785,7.20349 3.60786,7.21677 3.60786,7.21146 3.60786,7.18872 3.60786,7.14741 3.60784,7.08889 3.60786,7.01193 3.60788,6.91811 3.60785,6.80644 3.60787,6.67834 3.60785,6.53286 3.60785,6.3718 3.60787,6.19409 3.60785,6.00162 3.60786,5.79304 3.60786,5.5714 3.60785,5.3354 3.60786,5.08493 3.60858,4.82286 3.60787,4.54938 3.60784,4.26278 3.60787,3.966214"
         style="fill:none;stroke:#e53935;stroke-width:47;stroke-linecap:round;stroke-linejoin:miter;stroke-miterlimit:4;stroke-dasharray:none;stroke-opacity:1" />
      <path
         style="fill:none;stroke:#00897b;stroke-width:47;stroke-linecap:round;stroke-linejoin:miter;stroke-miterlimit:4;stroke-dasharray:none;stroke-opacity:1"
         d="m 24.188211,-343.74857 v 0 l 3.607861,3.76335 3.607851,4.06578 3.607861,4.35956 3.607862,4.64104 3.607851,4.91171 3.607862,5.17013 3.607861,5.41475 3.607852,5.64722 3.607861,5.86372 3.607861,6.06727 3.607852,6.25515 3.607862,6.42709 3.607861,6.58314 3.607851,6.72273 3.607862,6.84557 3.607861,6.95117 3.607851,7.0395 3.607862,7.11026 3.607851,7.16314 3.607862,7.19825 3.607861,7.21522 3.60786,7.2143 3.60785,7.1952 3.60786,7.15822 3.60787,7.10334 3.60783,7.03069 3.60786,6.94043 3.60787,6.83295 3.60785,6.70821 3.60787,6.56681 3.60786,6.40895 3.60788,6.23495 3.60784,6.04566 3.60786,5.84127 3.60785,5.62202 3.60786,5.38868 3.60787,5.14202 3.60785,4.8829 3.60786,4.61067 3.60786,4.32774 3.60786,4.03407 3.60786,3.729495 3.60785,3.415377 3.60787,3.094277 3.60786,2.764452 3.60784,2.427339 3.60786,2.084476 3.60786,1.737407 3.60785,1.384277 3.60787,1.029305 3.60787,0.670635 3.60785,0.310218 3.60786,-0.05031 3.60787,-0.410611 3.60786,-0.770198 3.60786,-1.128159 3.60783,-1.483237 3.60786,-1.834105 3.60787,-2.180459 3.60785,-2.521779 3.60786,-2.856122"
         id="path2170" />
      <path
         id="path3817"
         d="m 153.26355,-358.77086 3.60786,1.81528 3.60785,2.16174 3.60786,2.50311 3.60787,2.83805 3.60785,3.16644 3.60786,3.48692 3.60784,3.79802 3.60786,4.1004 3.60788,4.39132 3.60785,4.67278 3.60786,4.9413 3.60785,5.19827 3.60786,5.44221 3.60786,5.67174 3.60786,5.88828 3.60785,6.08966 3.60786,6.27492 3.60788,6.44556 3.60784,6.59973 3.60787,6.73752 3.60785,6.85835 3.60787,6.96207 3.60786,7.04848 3.60784,7.11707 3.60786,7.168 3.60786,7.20105 3.60786,7.21605 3.60786,7.21304 3.60784,7.19188 3.60786,7.15298 3.60789,7.09596 3.60784,7.02132 3.60787,6.92915 3.60785,6.81959 3.60787,6.69304 3.60786,6.54981 3.60784,6.39005 3.60786,6.21463 3.60785,6.02319 3.60786,5.81684 3.60788,5.59666 3.60784,5.36137 3.60786,5.11305 3.60787,4.85253 3.60785,4.57966 3.60786,4.2946 3.60785,3.999476 3.60785,3.69481 3.60787,3.380063 3.60785,3.056705 3.60787,2.726164 3.60788,2.389151 3.60784,2.046187 3.60787,1.696756 3.60783,1.344758 3.60787,0.988037 3.60786,0.630188 3.60786,0.269978 3.60786,-0.09136 3.60785,-0.451983 3.60786,-0.811166 3.60787,-1.167999 3.60784,-1.522861 3.60787,-1.873729 3.60786,-2.219466 3.60785,-2.560172 3.60786,-2.894308 3.60785,-3.220541 3.60786,-3.53969 3.60786,-3.85001 3.60786,-4.149448 3.60786,-4.43966 3.60784,-4.71896 3.60786,-4.98536 3.60788,-5.24015 3.60785,-5.48188 3.60787,-5.70926 3.60786,-5.923 3.60784,-6.12203 3.60787,-6.30496 3.60785,-6.4727 3.60786,-6.62414 3.60786,-6.75903 3.60785,-6.87706 3.60786,-6.97785 3.60857,-7.06123 3.60788,-7.12699 3.60784,-7.17487 3.49825,-6.9476 2.40907,-4.61001"
         style="fill:none;stroke:#fb8c00;stroke-width:47;stroke-linecap:round;stroke-linejoin:miter;stroke-miterlimit:4;stroke-dasharray:none;stroke-opacity:1" />
      <path
         style="fill:none;stroke:#3949ab;stroke-width:47;stroke-linecap:butt;stroke-linejoin:miter;stroke-miterlimit:4;stroke-dasharray:none;stroke-opacity:1"
         d="m 23.280285,-217.90823 c 2.893085,-0.41291 453.469755,0 453.469755,0"
         id="path3043" />
      <path
         style="fill:none;stroke:#fb8c00;stroke-width:47;stroke-linecap:round;stroke-linejoin:miter;stroke-miterlimit:4;stroke-dasharray:none;stroke-opacity:1"
         d="m 23.175542,-217.88169 v 0 l 3.812969,-7.52302 3.607853,-7.19675 3.607861,-7.1607 3.607861,-7.10687 3.607861,-7.0351 3.607853,-6.94583 3.60786,-6.83927 3.607862,-6.71553 3.607852,-6.57497 3.607861,-6.41805 3.607852,-6.24476 3.607861,-6.05718 3.607862,-5.85219 3.607851,-5.63493 3.607862,-5.40178 3.607861,-5.15567 3.607861,-4.89728 3.607852,-4.6259 3.607862,-4.34365 3.607861,-4.04989 3.607851,-3.74678 3.607859,-3.43276 3.60786,-3.11231 3.60786,-2.78248 3.60785,-2.44609 3.60786,-2.10401 3.60786,-1.75609 3.60786,-1.40384 3.60785,-1.04876 3.60786,-0.69 3.60787,-0.33059 3.60786,0.0303 3.60785,0.39122 3.60787,0.75063 3.60785,1.10866 3.60786,1.46303 3.60786,1.81528 3.60785,2.16174 3.60786,2.50311 3.60787,2.83806 3.60785,3.16643 3.60786,3.48692 3.60784,3.79802"
         id="path2168" />
      <path
         style="fill:none;stroke:#e53935;stroke-width:47;stroke-linecap:round;stroke-linejoin:miter;stroke-miterlimit:4;stroke-dasharray:none;stroke-opacity:1"
         d="m 23.38065,-92.230535 3.607861,3.451511 3.607853,3.131139 3.607861,2.801911 3.607861,2.466346 3.607861,2.123383 3.607853,1.777133 3.60786,1.424725 3.607862,1.06903 3.607852,0.711696 3.607861,0.351484 3.607852,-0.01027 3.607861,-0.370271 3.607862,-0.729032 3.607851,-1.087714 3.607862,-1.442895 3.607861,-1.794995 3.607861,-2.141448 3.607852,-2.482978 3.607862,-2.819166 3.607861,-3.147041 3.607851,-3.46814 3.607859,-3.780616 3.60785,-4.082417 3.60787,-4.37477 3.60785,-4.65686 3.60786,-4.92623 3.60786,-5.18307 3.60786,-5.4285 3.60785,-5.65866 3.60786,-5.87608 3.60787,-6.07799 3.60786,-6.26463 3.60785,-6.43604 3.60787,-6.59119 3.60785,-6.72994 3.60786,-6.8517 3.60786,-6.95657 3.60785,-7.04377 3.60786,-7.11365 3.60787,-7.16546 3.60785,-7.19968 3.60786,-7.21562 3.60784,-7.2137 3.60786,-7.19374 3.60788,-7.15566 3.60785,-7.09977 3.60786,-7.02622 3.60785,-6.93501 3.60786,-6.82644 3.60786,-6.70093 3.60786,-6.55858 3.60785,-6.39995 3.60786,-6.22494 3.60788,-6.03477 3.60784,-5.82982 3.60787,-5.60966 3.60785,-5.37582 3.60787,-5.12824 3.60786,-4.86768 3.60784,-4.59556 3.60786,-4.31191 3.60786,-4.01743 3.60786,-3.7121 3.60786,-3.39886 3.60784,-3.07622 3.60786,-2.74566 3.60789,-2.40931 3.60784,-2.06571 3.60787,-1.71782 3.60785,-1.3649 3.60787,-1.00977 3.60786,-0.65106 3.60784,-0.29086 3.60786,0.07 3.60785,0.43089 3.60786,0.78965 3.60788,1.14762 3.60784,1.50201 3.60786,1.85355 3.60787,2.19924 3.60785,2.54068 3.60786,2.87414 3.60785,3.20178 3.60785,3.52156 3.60787,3.83193 3.60785,4.13218 3.60787,4.42307 3.60788,4.7024 3.60784,4.9709"
         id="path2172" />
      <path
         id="path3815"
         d="m 215.4047,-74.446258 3.60787,-0.410614 3.60786,-0.770208 3.60786,-1.128158 3.60783,-1.483237 3.60786,-1.834106 3.60787,-2.180457 3.60785,-2.52178 3.60786,-2.856122 3.60785,-3.184612 3.60787,-3.503453 3.60787,-3.815312 3.60785,-4.116293 3.60787,-4.40721 3.60786,-4.68725 3.60785,-4.95641 3.60786,-5.21191 3.60784,-5.45459 3.60786,-5.68473 3.60786,-5.89907 3.60786,-6.09976 3.60786,-6.28535 3.60785,-6.45432 3.60786,-6.60784 3.60788,-6.7446 3.60784,-6.86441 3.60786,-6.96728 3.60786,-7.05263 3.60785,-7.12041 3.60786,-7.17033 3.60785,-7.20239 3.60786,-7.21637 3.60787,-7.21237 3.60786,-7.19027 3.60787,-7.15032 3.60787,-7.09234 3.60783,-7.0168 3.60786,-6.92358 3.60785,-6.81315 3.60786,-6.68563 3.60786,-6.54149 3.60785,-6.38091 3.60787,-6.20455 3.60785,-6.01241 3.60786,-5.80526 3.60787,-5.58372 3.60785,-5.34836 3.60786,-5.09939 3.60785,-4.83736 3.60785,-4.56451 3.60787,-4.27871 3.60785,-3.98351 3.60786,-3.67672 3.60787,-3.3628 3.60784,-3.03868 3.60788,-2.70813 3.60784,-2.37031 3.60788,-2.02677 3.60786,-1.67813 3.60784,-1.32518 3.60786,-0.96863 3.60786,-0.6099 3.60785,-0.25046 3.60786,0.11115 3.60786,0.47131 3.60786,0.8308 3.60786,1.18803 3.60785,1.54173 3.60788,1.89322 3.60857,2.23824 3.60786,2.57822 3.60785,2.91235 3.60786,3.23863"
         style="fill:none;stroke:#00897b;stroke-width:47;stroke-linecap:round;stroke-linejoin:miter;stroke-miterlimit:4;stroke-dasharray:none;stroke-opacity:1" />
      <path
         style="fill:none;stroke:#fb8c00;stroke-width:47;stroke-linecap:round;stroke-linejoin:miter;stroke-miterlimit:4;stroke-dasharray:none;stroke-opacity:1"
         d="m 384.16647,-79.764015 3.60787,-2.219467 3.60784,-2.560171 3.60786,-2.894308 3.60785,-3.220542 3.60786,-3.53969 3.60787,-3.850009 3.60785,-4.149448 3.60786,-4.43965 3.60785,-4.71896 3.60786,-4.98536 3.60787,-5.24015 3.60785,-5.48188 3.60787,-5.70926 3.60785,-5.923 3.60785,-6.12203 3.60787,-6.30496 3.60785,-6.4727 3.60786,-6.62414 3.60786,-6.75903 3.60785,-6.87706 3.60786,-6.97785 3.60858,-7.06124 3.60787,-7.12699 3.60784,-7.17486 3.49825,-6.94761 2.57044,-4.81153"
         id="path3840" />
    </g>
  </g>
</svg>
